<svg width="95" height="72" viewBox="0 0 95 72" fill="none" xmlns="http://www.w3.org/2000/svg">
<path fill-rule="evenodd" clip-rule="evenodd" d="M45 7.5C38.3726 7.5 33 12.8726 33 19.5C33 19.8337 33.0137 20.1645 33.0405 20.4918C29.4725 22.1681 27 25.7937 27 30C27 35.799 31.701 40.5 37.5 40.5H60C64.9706 40.5 69 36.4706 69 31.5C69 28.1305 67.1489 25.1963 64.4116 23.654C64.4698 23.2773 64.5 22.8918 64.5 22.5C64.5 18.3579 61.1421 15 57 15C56.7118 15 56.427 15.0163 56.1466 15.0482C54.3786 10.6256 50.0559 7.5 45 7.5ZM49.5 19.5C49.5 18.6716 48.8284 18 48 18C47.1716 18 46.5 18.6716 46.5 19.5V29.3787L43.0607 25.9393C42.4749 25.3536 41.5251 25.3536 40.9393 25.9393C40.3536 26.5251 40.3536 27.4749 40.9393 28.0607L46.9393 34.0607C47.5251 34.6464 48.4749 34.6464 49.0607 34.0607L55.0607 28.0607C55.6464 27.4749 55.6464 26.5251 55.0607 25.9393C54.4749 25.3536 53.5251 25.3536 52.9393 25.9393L49.5 29.3787V19.5Z" fill="#0F172A"/>
<path d="M4.9 68.168C4.16267 68.168 3.514 68.014 2.954 67.706C2.394 67.398 1.96 66.978 1.652 66.446C1.344 65.9047 1.19 65.2887 1.19 64.598V57.57H2.31V64.598C2.31 65.102 2.41733 65.5453 2.632 65.928C2.856 66.3013 3.15933 66.5953 3.542 66.81C3.934 67.0153 4.38667 67.118 4.9 67.118C5.41333 67.118 5.86133 67.0153 6.244 66.81C6.636 66.5953 6.93933 66.3013 7.154 65.928C7.378 65.5453 7.49 65.102 7.49 64.598V57.57H8.61V64.598C8.61 65.2887 8.456 65.9047 8.148 66.446C7.84 66.978 7.406 67.398 6.846 67.706C6.29533 68.014 5.64667 68.168 4.9 68.168ZM10.8807 70.8V60.496H11.9307V62.176L11.7627 61.882C12.0614 61.406 12.4581 61.028 12.9527 60.748C13.4567 60.468 14.0307 60.328 14.6747 60.328C15.3841 60.328 16.0141 60.5007 16.5647 60.846C17.1247 61.182 17.5634 61.644 17.8807 62.232C18.2074 62.82 18.3707 63.492 18.3707 64.248C18.3707 64.9947 18.2074 65.6667 17.8807 66.264C17.5634 66.852 17.1247 67.3187 16.5647 67.664C16.0141 68 15.3841 68.168 14.6747 68.168C14.0307 68.168 13.4474 68.0233 12.9247 67.734C12.4114 67.4353 12.0241 67.0153 11.7627 66.474L11.9307 66.32V70.8H10.8807ZM14.6187 67.118C15.1227 67.118 15.5707 66.992 15.9627 66.74C16.3641 66.488 16.6767 66.1473 16.9007 65.718C17.1341 65.2793 17.2507 64.7893 17.2507 64.248C17.2507 63.6973 17.1341 63.2073 16.9007 62.778C16.6767 62.3487 16.3641 62.008 15.9627 61.756C15.5707 61.504 15.1227 61.378 14.6187 61.378C14.1147 61.378 13.6574 61.504 13.2467 61.756C12.8454 62.008 12.5234 62.3533 12.2807 62.792C12.0474 63.2213 11.9307 63.7067 11.9307 64.248C11.9307 64.7893 12.0474 65.2793 12.2807 65.718C12.5234 66.1473 12.8454 66.488 13.2467 66.74C13.6574 66.992 14.1147 67.118 14.6187 67.118ZM20.2186 68V57.402H21.2686V68H20.2186ZM26.9318 68.168C26.2225 68.168 25.5785 68 24.9998 67.664C24.4212 67.3187 23.9592 66.852 23.6138 66.264C23.2778 65.6667 23.1098 64.99 23.1098 64.234C23.1098 63.4873 23.2778 62.82 23.6138 62.232C23.9498 61.644 24.4025 61.182 24.9718 60.846C25.5505 60.5007 26.2038 60.328 26.9318 60.328C27.6598 60.328 28.3085 60.496 28.8778 60.832C29.4565 61.168 29.9092 61.63 30.2358 62.218C30.5718 62.806 30.7398 63.478 30.7398 64.234C30.7398 64.9993 30.5672 65.6807 30.2218 66.278C29.8765 66.866 29.4145 67.328 28.8358 67.664C28.2665 68 27.6318 68.168 26.9318 68.168ZM26.9318 67.118C27.4358 67.118 27.8885 66.992 28.2898 66.74C28.7005 66.488 29.0225 66.1427 29.2558 65.704C29.4985 65.2653 29.6198 64.7753 29.6198 64.234C29.6198 63.6927 29.4985 63.2073 29.2558 62.778C29.0225 62.3487 28.7005 62.008 28.2898 61.756C27.8885 61.504 27.4358 61.378 26.9318 61.378C26.4278 61.378 25.9705 61.504 25.5598 61.756C25.1585 62.008 24.8365 62.3487 24.5938 62.778C24.3512 63.2073 24.2298 63.6927 24.2298 64.234C24.2298 64.7753 24.3512 65.2653 24.5938 65.704C24.8365 66.1427 25.1585 66.488 25.5598 66.74C25.9705 66.992 26.4278 67.118 26.9318 67.118ZM34.7617 68.168C34.2857 68.168 33.861 68.0793 33.4877 67.902C33.1143 67.7153 32.8203 67.4633 32.6057 67.146C32.391 66.8287 32.2837 66.4647 32.2837 66.054C32.2837 65.662 32.3677 65.3073 32.5357 64.99C32.7037 64.6633 32.965 64.388 33.3197 64.164C33.6743 63.94 34.127 63.7813 34.6777 63.688L37.6177 63.198V64.15L34.9297 64.598C34.3883 64.6913 33.9963 64.864 33.7537 65.116C33.5203 65.368 33.4037 65.6667 33.4037 66.012C33.4037 66.348 33.5343 66.6327 33.7957 66.866C34.0663 67.0993 34.4117 67.216 34.8317 67.216C35.345 67.216 35.793 67.1087 36.1757 66.894C36.5583 66.67 36.857 66.3713 37.0717 65.998C37.2863 65.6247 37.3937 65.2093 37.3937 64.752V62.848C37.3937 62.4 37.2303 62.036 36.9037 61.756C36.577 61.476 36.1523 61.336 35.6297 61.336C35.1723 61.336 34.771 61.4527 34.4257 61.686C34.0803 61.91 33.8237 62.204 33.6557 62.568L32.7037 62.05C32.8437 61.7327 33.063 61.4433 33.3617 61.182C33.6697 60.9207 34.0197 60.7153 34.4117 60.566C34.8037 60.4073 35.2097 60.328 35.6297 60.328C36.1803 60.328 36.6657 60.4353 37.0857 60.65C37.515 60.8647 37.8463 61.1633 38.0797 61.546C38.3223 61.9193 38.4437 62.3533 38.4437 62.848V68H37.3937V66.502L37.5477 66.656C37.417 66.936 37.2117 67.1927 36.9317 67.426C36.661 67.65 36.339 67.832 35.9657 67.972C35.6017 68.1027 35.2003 68.168 34.7617 68.168ZM43.9914 68.168C43.2914 68.168 42.6614 68 42.1014 67.664C41.5414 67.3187 41.0981 66.852 40.7714 66.264C40.4541 65.6667 40.2954 64.9947 40.2954 64.248C40.2954 63.492 40.4541 62.82 40.7714 62.232C41.0981 61.644 41.5367 61.182 42.0874 60.846C42.6474 60.5007 43.2821 60.328 43.9914 60.328C44.6354 60.328 45.2094 60.468 45.7134 60.748C46.2174 61.028 46.6141 61.406 46.9034 61.882L46.7354 62.176V57.402H47.7854V68H46.7354V66.32L46.9034 66.474C46.6421 67.0153 46.2501 67.4353 45.7274 67.734C45.2141 68.0233 44.6354 68.168 43.9914 68.168ZM44.0474 67.118C44.5514 67.118 45.0041 66.992 45.4054 66.74C45.8161 66.488 46.1381 66.1473 46.3714 65.718C46.6141 65.2793 46.7354 64.7893 46.7354 64.248C46.7354 63.7067 46.6141 63.2213 46.3714 62.792C46.1381 62.3533 45.8161 62.008 45.4054 61.756C45.0041 61.504 44.5514 61.378 44.0474 61.378C43.5527 61.378 43.1047 61.504 42.7034 61.756C42.3021 62.008 41.9847 62.3487 41.7514 62.778C41.5274 63.2073 41.4154 63.6973 41.4154 64.248C41.4154 64.7893 41.5274 65.2793 41.7514 65.718C41.9847 66.1473 42.2974 66.488 42.6894 66.74C43.0907 66.992 43.5434 67.118 44.0474 67.118ZM52.3202 70.8V60.496H53.3702V62.176L53.2022 61.882C53.5009 61.406 53.8975 61.028 54.3922 60.748C54.8962 60.468 55.4702 60.328 56.1142 60.328C56.8235 60.328 57.4535 60.5007 58.0042 60.846C58.5642 61.182 59.0029 61.644 59.3202 62.232C59.6469 62.82 59.8102 63.492 59.8102 64.248C59.8102 64.9947 59.6469 65.6667 59.3202 66.264C59.0029 66.852 58.5642 67.3187 58.0042 67.664C57.4535 68 56.8235 68.168 56.1142 68.168C55.4702 68.168 54.8869 68.0233 54.3642 67.734C53.8509 67.4353 53.4635 67.0153 53.2022 66.474L53.3702 66.32V70.8H52.3202ZM56.0582 67.118C56.5622 67.118 57.0102 66.992 57.4022 66.74C57.8035 66.488 58.1162 66.1473 58.3402 65.718C58.5735 65.2793 58.6902 64.7893 58.6902 64.248C58.6902 63.6973 58.5735 63.2073 58.3402 62.778C58.1162 62.3487 57.8035 62.008 57.4022 61.756C57.0102 61.504 56.5622 61.378 56.0582 61.378C55.5542 61.378 55.0969 61.504 54.6862 61.756C54.2849 62.008 53.9629 62.3533 53.7202 62.792C53.4869 63.2213 53.3702 63.7067 53.3702 64.248C53.3702 64.7893 53.4869 65.2793 53.7202 65.718C53.9629 66.1473 54.2849 66.488 54.6862 66.74C55.0969 66.992 55.5542 67.118 56.0582 67.118ZM61.6581 68V57.402H62.7081V61.952L62.4701 61.896C62.6567 61.4107 62.9601 61.028 63.3801 60.748C63.8094 60.468 64.3041 60.328 64.8641 60.328C65.3961 60.328 65.8721 60.4493 66.2921 60.692C66.7214 60.9347 67.0574 61.2707 67.3001 61.7C67.5521 62.12 67.6781 62.596 67.6781 63.128V68H66.6281V63.534C66.6281 63.0767 66.5441 62.6893 66.3761 62.372C66.2081 62.0547 65.9747 61.812 65.6761 61.644C65.3867 61.4667 65.0554 61.378 64.6821 61.378C64.3087 61.378 63.9727 61.4667 63.6741 61.644C63.3754 61.812 63.1374 62.0593 62.9601 62.386C62.7921 62.7033 62.7081 63.086 62.7081 63.534V68H61.6581ZM73.1975 68.168C72.4881 68.168 71.8441 68 71.2655 67.664C70.6868 67.3187 70.2248 66.852 69.8795 66.264C69.5435 65.6667 69.3755 64.99 69.3755 64.234C69.3755 63.4873 69.5435 62.82 69.8795 62.232C70.2155 61.644 70.6681 61.182 71.2375 60.846C71.8161 60.5007 72.4695 60.328 73.1975 60.328C73.9255 60.328 74.5741 60.496 75.1435 60.832C75.7221 61.168 76.1748 61.63 76.5015 62.218C76.8375 62.806 77.0055 63.478 77.0055 64.234C77.0055 64.9993 76.8328 65.6807 76.4875 66.278C76.1421 66.866 75.6801 67.328 75.1015 67.664C74.5321 68 73.8975 68.168 73.1975 68.168ZM73.1975 67.118C73.7015 67.118 74.1541 66.992 74.5555 66.74C74.9661 66.488 75.2881 66.1427 75.5215 65.704C75.7641 65.2653 75.8855 64.7753 75.8855 64.234C75.8855 63.6927 75.7641 63.2073 75.5215 62.778C75.2881 62.3487 74.9661 62.008 74.5555 61.756C74.1541 61.504 73.7015 61.378 73.1975 61.378C72.6935 61.378 72.2361 61.504 71.8255 61.756C71.4241 62.008 71.1021 62.3487 70.8595 62.778C70.6168 63.2073 70.4955 63.6927 70.4955 64.234C70.4955 64.7753 70.6168 65.2653 70.8595 65.704C71.1021 66.1427 71.4241 66.488 71.8255 66.74C72.2361 66.992 72.6935 67.118 73.1975 67.118ZM81.5906 68.084C80.9186 68.084 80.4006 67.888 80.0366 67.496C79.6726 67.104 79.4906 66.544 79.4906 65.816V61.546H78.1046V60.496H78.4546C78.7719 60.496 79.0239 60.3933 79.2106 60.188C79.3972 59.9733 79.4906 59.7073 79.4906 59.39V58.76H80.5406V60.496H82.1926V61.546H80.5406V65.816C80.5406 66.068 80.5779 66.292 80.6526 66.488C80.7272 66.6747 80.8532 66.824 81.0306 66.936C81.2172 67.048 81.4646 67.104 81.7726 67.104C81.8472 67.104 81.9359 67.0993 82.0386 67.09C82.1412 67.0807 82.2299 67.0713 82.3046 67.062V68C82.1926 68.028 82.0666 68.0467 81.9266 68.056C81.7866 68.0747 81.6746 68.084 81.5906 68.084ZM87.3889 68.168C86.6795 68.168 86.0355 68 85.4569 67.664C84.8782 67.3187 84.4162 66.852 84.0709 66.264C83.7349 65.6667 83.5669 64.99 83.5669 64.234C83.5669 63.4873 83.7349 62.82 84.0709 62.232C84.4069 61.644 84.8595 61.182 85.4289 60.846C86.0075 60.5007 86.6609 60.328 87.3889 60.328C88.1169 60.328 88.7655 60.496 89.3349 60.832C89.9135 61.168 90.3662 61.63 90.6929 62.218C91.0289 62.806 91.1969 63.478 91.1969 64.234C91.1969 64.9993 91.0242 65.6807 90.6789 66.278C90.3335 66.866 89.8715 67.328 89.2929 67.664C88.7235 68 88.0889 68.168 87.3889 68.168ZM87.3889 67.118C87.8929 67.118 88.3455 66.992 88.7469 66.74C89.1575 66.488 89.4795 66.1427 89.7129 65.704C89.9555 65.2653 90.0769 64.7753 90.0769 64.234C90.0769 63.6927 89.9555 63.2073 89.7129 62.778C89.4795 62.3487 89.1575 62.008 88.7469 61.756C88.3455 61.504 87.8929 61.378 87.3889 61.378C86.8849 61.378 86.4275 61.504 86.0169 61.756C85.6155 62.008 85.2935 62.3487 85.0509 62.778C84.8082 63.2073 84.6869 63.6927 84.6869 64.234C84.6869 64.7753 84.8082 65.2653 85.0509 65.704C85.2935 66.1427 85.6155 66.488 86.0169 66.74C86.4275 66.992 86.8849 67.118 87.3889 67.118Z" fill="#6B7280"/>
</svg>
