<svg version="1.1" xmlns="http://www.w3.org/2000/svg" width="32" height="32" viewBox="0 0 32 32">
<path stroke-linejoin="round" stroke-linecap="round" stroke-miterlimit="4" stroke-width="1" stroke="#0f172a" fill="#0f172a" d="M7.293 7.293c0.391-0.391 1.024-0.391 1.414 0l7.293 7.293 7.293-7.293c0.391-0.391 1.024-0.391 1.414 0s0.39 1.024 0 1.414l-7.293 7.293 7.293 7.293c0.39 0.391 0.39 1.024 0 1.414s-1.024 0.39-1.414 0l-7.293-7.293-7.293 7.293c-0.391 0.39-1.024 0.39-1.414 0s-0.391-1.024 0-1.414l7.293-7.293-7.293-7.293c-0.391-0.391-0.391-1.024 0-1.414z"></path>
</svg>
